<svg class="start-today_start-today-arrow-desktop__iSfXb hrt-show-for-md" width="32" height="32" viewBox="0 0 32 32" fill="none" xmlns="http://www.w3.org/2000/svg"><path fill-rule="evenodd" clip-rule="evenodd" d="M15.869 8.9218C15.6224 9.16845 15.6224 9.56834 15.869 9.81499L21.4224 15.3684H9.06592C8.70968 15.3684 8.4209 15.6512 8.4209 16C8.4209 16.3488 8.70968 16.6316 9.06592 16.6316H21.4224L15.869 22.185C15.6224 22.4316 15.6224 22.8315 15.869 23.0781C16.1157 23.3248 16.5156 23.3248 16.7622 23.0781L23.3938 16.4466C23.5094 16.331 23.5708 16.1817 23.5781 16.0303C23.5786 16.0202 23.5788 16.0101 23.5788 16C23.5788 15.9898 23.5785 15.9795 23.5781 15.9693C23.5708 15.8181 23.5093 15.6689 23.3938 15.5534L16.7622 8.9218C16.5156 8.67515 16.1157 8.67515 15.869 8.9218Z" fill="#333333"></path><circle cx="16" cy="16" r="15.5" stroke="#333333"></circle></svg>